<svg xmlns="http://www.w3.org/2000/svg" width="256" height="256" viewBox="0 0 100 100"><rect width="100" height="100" rx="20" fill="#106f50"></rect><path fill="#ffffff" d="M43.13 61.87L45.62 63.52Q43.20 67.18 40.89 69.80Q38.58 72.42 36.10 74.08Q33.61 75.74 30.85 76.50Q28.09 77.25 24.92 77.25L24.92 77.25Q20.23 77.25 16.50 75.77Q12.77 74.29 10.19 71.49Q7.60 68.70 6.18 64.73Q4.77 60.76 4.77 55.80L4.77 55.80Q4.77 49.24 7.19 43.27Q9.60 37.30 13.64 32.75Q17.67 28.20 22.99 25.47Q28.30 22.74 34.10 22.74L34.10 22.74Q37.41 22.74 40.41 23.75Q43.41 24.75 46.52 26.88L46.52 26.88L49.07 23.43L51.62 23.43L48.45 40.75L45.83 40.75Q45.27 33.23 42.62 29.78Q39.96 26.33 34.65 26.33L34.65 26.33Q30.09 26.33 26.16 28.61Q22.23 30.89 19.33 34.89Q16.43 38.89 14.78 44.27Q13.12 49.65 13.12 55.86L13.12 55.86Q13.12 72.98 26.44 72.98L26.44 72.98Q31.40 72.98 35.44 70.29Q39.48 67.59 43.13 61.87L43.13 61.87ZM48.24 76.56L49.00 73.80Q51.28 73.80 52.76 73.46Q54.24 73.11 55.24 72.18Q56.24 71.25 56.93 69.70Q57.62 68.15 58.25 65.66L58.25 65.66L66.04 35.16Q66.53 33.23 66.80 31.85Q67.08 30.47 67.08 29.51L67.08 29.51Q67.08 27.64 65.87 26.92Q64.66 26.19 61.76 26.19L61.76 26.19L60.25 26.19L61.01 23.43L83.43 23.43L82.67 26.19Q80.39 26.19 78.88 26.64Q77.36 27.09 76.25 28.33Q75.15 29.58 74.29 31.78Q73.43 33.99 72.53 37.51L72.53 37.51L65.35 64.83Q64.73 67.11 64.73 68.70L64.73 68.70Q64.73 71.18 66.42 72.39Q68.11 73.60 72.46 73.60L72.46 73.60Q76.60 73.60 79.60 72.91Q82.60 72.22 84.88 70.67Q87.16 69.11 88.85 66.66Q90.54 64.21 91.99 60.63L91.99 60.63L95.23 60.63L89.16 76.56L48.24 76.56Z"></path></svg>